<?xml version="1.0" encoding="iso-8859-1"?>
<!-- Generator: Adobe Illustrator 19.0.0, SVG Export Plug-In . SVG Version: 6.00 Build 0)  -->
<svg version="1.1" id="Capa_1" xmlns="http://www.w3.org/2000/svg" xmlns:xlink="http://www.w3.org/1999/xlink" x="0px" y="0px"
	 viewBox="0 0 512 512" style="enable-background:new 0 0 512 512;" xml:space="preserve">
<g>
	<circle style="fill:#E4EAF8;" cx="99.1" cy="289.031" r="99.1"/>
	<circle style="fill:#E4EAF8;" cx="148.65" cy="107.362" r="24.774"/>
	<circle style="fill:#E4EAF8;" cx="280.77" cy="421.161" r="66.06"/>
	<circle style="fill:#E4EAF8;" cx="371.61" cy="165.161" r="140.39"/>
</g>
<g>
	<path style="fill:#D5DCED;" d="M421.161,256.001c-77.534,0-140.387-62.853-140.387-140.387c0-25.99,7.188-50.245,19.498-71.122
		c-41.275,24.429-69.047,69.231-69.047,120.67c0,77.534,62.853,140.387,140.387,140.387c51.44,0,96.241-27.772,120.67-69.047
		C471.407,248.814,447.151,256.001,421.161,256.001z"/>
	<path style="fill:#D5DCED;" d="M140.387,346.84c-54.73,0-99.097-44.367-99.097-99.097c0-16.733,4.186-32.474,11.509-46.298
		C21.408,218.074,0,251.036,0,289.034c0,54.729,44.367,99.097,99.097,99.097c37.997,0,70.961-21.408,87.589-52.799
		C172.861,342.654,157.12,346.84,140.387,346.84z"/>
	<path style="fill:#D5DCED;" d="M165.161,123.873c-18.243,0-33.032-14.789-33.032-33.032c0-0.683,0.16-1.322,0.201-1.994
		c-5.147,4.54-8.459,11.108-8.459,18.511c0,13.682,11.092,24.774,24.774,24.774c7.402,0,13.971-3.313,18.511-8.459
		C166.483,123.713,165.845,123.873,165.161,123.873z"/>
	<path style="fill:#D5DCED;" d="M305.548,462.453c-36.486,0-66.065-29.578-66.065-66.065c0-11.878,3.177-22.995,8.664-32.626
		c-19.955,11.368-33.438,32.792-33.438,57.401c0,36.486,29.578,66.065,66.065,66.065c24.609,0,46.033-13.483,57.401-33.438
		C328.543,459.276,317.426,462.453,305.548,462.453z"/>
</g>
<g>
</g>
<g>
</g>
<g>
</g>
<g>
</g>
<g>
</g>
<g>
</g>
<g>
</g>
<g>
</g>
<g>
</g>
<g>
</g>
<g>
</g>
<g>
</g>
<g>
</g>
<g>
</g>
<g>
</g>
</svg>
