<?xml version="1.0" encoding="utf-8"?>
<!-- Generator: Adobe Illustrator 19.0.0, SVG Export Plug-In . SVG Version: 6.00 Build 0)  -->
<svg version="1.1" id="Capa_1" xmlns="http://www.w3.org/2000/svg" xmlns:xlink="http://www.w3.org/1999/xlink" x="0px" y="0px"
	 viewBox="-41 164.9 512 512" style="enable-background:new -41 164.9 512 512;" xml:space="preserve">
<style type="text/css">
	.st0{fill:#E4EAF8;}
	.st1{fill:#D5DCED;}
</style>
<g>
	<circle class="st0" cx="210.8" cy="431.7" r="125.4"/>
	<path class="st0" d="M357,598.9"/>
</g>
<g>
	<path class="st1" d="M263,504.9c-69.2,0-125.4-56.1-125.4-125.4c0-21.2,5.3-41.1,14.6-58.6c-39.7,21-66.8,62.7-66.8,110.8
		c0,69.2,56.1,125.4,125.4,125.4c48.1,0,89.8-27.1,110.8-66.8C304.1,499.6,284.2,504.9,263,504.9z"/>
	<path class="st1" d="M357,598.9"/>
</g>
<path d="M307.3,351.1c-4.4,3.1-5.4,9.2-2.3,13.6c15.7,22,23.1,49,21,76.1c-2.2,27.4-14.1,53.2-33.5,72.6
	c-45.1,45.1-118.4,45.1-163.5,0S83.9,395.1,129,350c19.5-19.4,45.2-31.3,72.6-33.5c27.1-2.1,54.1,5.3,76.1,21
	c4.4,3.1,10.5,2.1,13.6-2.3c3.1-4.4,2.1-10.5-2.3-13.6c-25.7-18.3-57.3-27.1-89-24.6c-32,2.5-62.2,16.4-84.9,39.2
	c-52.7,52.7-52.7,138.4,0,191.1c26.3,26.3,61,39.5,95.6,39.5c34.6,0,69.2-13.2,95.6-39.5c22.7-22.7,36.7-52.9,39.2-84.9
	c2.5-31.7-6.2-63.3-24.6-89C317.8,349,311.7,348,307.3,351.1z"/>
</svg>
