<?xml version="1.0" encoding="iso-8859-1"?>
<!-- Generator: Adobe Illustrator 19.0.0, SVG Export Plug-In . SVG Version: 6.00 Build 0)  -->
<svg version="1.1" id="Layer_1" xmlns="http://www.w3.org/2000/svg" xmlns:xlink="http://www.w3.org/1999/xlink" x="0px" y="0px"
	 viewBox="0 0 512 512" style="enable-background:new 0 0 512 512;" xml:space="preserve">
<path style="fill:#FF738E;" d="M322.73,198.59v-62.704h-24.265L256,111.621l-42.464,24.265H189.27v62.704h-84.929
	c-6.673,0-12.133,5.46-12.133,12.133v289.144c0,6.673,5.46,12.133,12.133,12.133h303.318c6.673,0,12.133-5.46,12.133-12.133V210.723
	c0-6.673-5.46-12.133-12.133-12.133H322.73z"/>
<rect x="140.739" y="247.119" style="fill:#FFD37D;" width="230.521" height="216.35"/>
<path style="fill:#FF9690;" d="M243.867,247.121v167.817c0,6.7,5.432,12.133,12.133,12.133c6.7,0,12.133-5.433,12.133-12.133
	V247.121L256,234.989L243.867,247.121z"/>
<rect x="243.867" y="111.621" style="fill:#FD3B6D;" width="24.265" height="135.498"/>
<rect x="213.536" style="fill:#FFD37D;" width="84.929" height="135.886"/>
<circle style="fill:#FD3B6D;" cx="256" cy="49.137" r="12.133"/>
<g>
</g>
<g>
</g>
<g>
</g>
<g>
</g>
<g>
</g>
<g>
</g>
<g>
</g>
<g>
</g>
<g>
</g>
<g>
</g>
<g>
</g>
<g>
</g>
<g>
</g>
<g>
</g>
<g>
</g>
</svg>
