<?xml version="1.0" encoding="UTF-8"?>
<!DOCTYPE svg PUBLIC "-//W3C//DTD SVG 1.1//EN" "http://www.w3.org/Graphics/SVG/1.1/DTD/svg11.dtd">
<!-- Creator: CorelDRAW X8 -->
<svg xmlns="http://www.w3.org/2000/svg" xml:space="preserve" width="97px" height="30px" version="1.1" style="shape-rendering:geometricPrecision; text-rendering:geometricPrecision; image-rendering:optimizeQuality; fill-rule:evenodd; clip-rule:evenodd"
viewBox="0 0 97 30"
 xmlns:xlink="http://www.w3.org/1999/xlink">
 <defs>
  <style type="text/css">
   <![CDATA[
    .str0 {stroke:#ED1957;stroke-width:0.288}
    .fil0 {fill:#ED1957}
    .fil2 {fill:#1A3547;fill-rule:nonzero}
    .fil1 {fill:#ED1957;fill-rule:nonzero}
   ]]>
  </style>
 </defs>
 <g id="Слой_x0020_1">
  <metadata id="CorelCorpID_0Corel-Layer"/>
  <g id="_1519439839312">
   <path class="fil0 str0" d="M16 12l1 0c0,1 0,2 0,3 0,5 -3,9 -6,10l0 0c2,0 4,1 6,1l0 1c-3,0 -5,-1 -7,-2 -1,0 -1,0 -1,0 -5,0 -9,-3 -9,-10 0,-6 4,-10 9,-10 0,0 1,0 1,0l0 1c0,0 -1,0 -1,0 -6,0 -8,5 -8,9 0,5 3,9 7,9 5,0 8,-4 8,-9 0,-1 0,-2 0,-3l0 0z"/>
   <path class="fil1 str0" d="M18 3l-1 0 0 2c0,2 0,2 0,3l0 0c0,0 -1,-1 -1,-2l-2 -3 -1 0 0 7 1 0 0 -3c0,-1 0,-2 0,-3l0 0c0,1 0,2 1,3l2 3 1 0 0 -7 0 0z"/>
   <path class="fil2" d="M30 12l-1 0 0 8c0,2 -2,4 -4,4 -2,0 -3,-2 -3,-5l0 -7 -1 0 0 7c0,5 2,6 4,6 2,0 3,-2 4,-3l0 0 0 2 1 0c0,0 0,-1 0,-3l0 -9 0 0 0 0zm12 5c0,-2 -1,-5 -4,-5 -1,0 -3,0 -4,1l1 1c1,-1 2,-1 3,-1 3,0 3,3 3,4 -5,0 -7,2 -7,4 0,2 1,4 3,4 2,0 3,-1 4,-2l0 0 0 1 1 0c0,0 0,-2 0,-2l0 -5 0 0zm-1 4c0,0 -1,3 -4,3 -1,0 -2,-1 -2,-3 0,-3 3,-3 6,-3l0 3 0 0zm11 -9c-1,0 -1,0 -1,0 -1,0 -3,1 -3,3l0 0 0 -3 -2 0c1,2 1,3 1,4l0 8 1 0 0 -6c0,-2 1,-5 3,-5 0,0 0,0 1,0l0 -1 0 0zm12 5c0,-4 -3,-5 -4,-5 -2,0 -3,1 -4,2l0 0 0 -2 -1 0c0,1 0,2 0,3l0 9 1 0 0 -7c0,-2 2,-4 4,-4 2,0 3,2 3,4l0 7 1 0 0 -7zm14 -5l-2 0 0 8c0,2 -2,4 -3,4 -2,0 -3,-2 -3,-5l0 -7 -2 0 0 7c0,5 3,6 4,6 3,0 4,-2 4,-3l1 0 0 2 1 0c0,0 0,-1 0,-3l0 -9 0 0 0 0zm5 0l-2 0 0 1 2 0 0 8c0,2 0,4 3,4 0,0 1,0 1,-1l0 -1c0,0 0,1 -1,1 -1,0 -2,-1 -2,-3l0 -8 3 0 0 -1 -3 0 0 -2 -1 0 0 2 0 0 0 0zm14 1c-1,-1 -2,-1 -3,-1 -2,0 -4,2 -4,3 0,2 1,3 3,4 2,0 3,1 3,2 0,2 -1,3 -3,3 -1,0 -2,-1 -3,-1l0 1c1,0 2,1 3,1 2,0 4,-2 4,-4 0,-2 -1,-3 -3,-3 -2,-1 -2,-2 -2,-3 0,-1 0,-2 2,-2 1,0 2,1 2,1l1 -1 0 0 0 0z"/>
  </g>
 </g>
</svg>
